<svg width="1389" height="616" viewBox="0 0 1389 616" fill="none" xmlns="http://www.w3.org/2000/svg">
<path d="M1 1H1349C1370.08 1 1387.37 18.2385 1387.37 39.3304C1387.37 60.4223 1370.12 77.6608 1349 77.6608H45.3732C24.2916 77.6608 6.99998 94.8994 6.99998 115.991C6.99998 137.049 24.2578 154.322 45.3732 154.322H372.172H1348.66C1369.74 154.322 1387.03 171.56 1387.03 192.652C1387.03 213.71 1369.78 230.983 1348.66 230.983H652.373" stroke="#F6F5F2" stroke-width="2" stroke-miterlimit="10"/>
<path d="M717 231H40.0497C18.9681 231 1.67651 248.239 1.67651 269.33C1.67651 290.422 18.9342 307.661 40.0497 307.661H1343.68C1364.76 307.661 1382.05 324.899 1382.05 345.991C1382.05 367.049 1364.79 384.322 1343.68 384.322H1016.88H40.3881C19.3065 384.322 2.01489 401.56 2.01489 422.652C2.01489 443.71 19.2726 460.983 40.3881 460.983H736.677" stroke="#F6F5F2" stroke-width="2" stroke-miterlimit="10"/>
<path d="M666.05 461H1343C1364.08 461 1381.37 478.239 1381.37 499.33C1381.37 520.422 1364.12 537.661 1343 537.661H39.3733C18.2917 537.661 1 554.899 1 575.991C1 597.049 18.2578 614.322 39.3733 614.322H1226.5" stroke="#F6F5F2" stroke-width="2" stroke-miterlimit="10"/>
<path d="M23.696 38.992V36.612H32.04V47H29.968L29.744 44.312C28.4 46.3 26.216 47.336 23.472 47.336C17.536 47.336 14.176 43.724 14.176 37.2C14.176 31.264 17.452 27.064 23.472 27.064C27.476 27.064 30.752 29.108 31.844 33.196L29.1 33.728C28.456 31.404 26.664 29.248 23.528 29.248C21.288 29.248 19.496 29.976 18.432 31.46C17.48 32.804 17.004 34.68 17.004 37.2C17.004 39.748 17.48 41.652 18.432 43.024C19.496 44.536 21.288 45.152 23.752 45.152C27.476 45.152 29.464 43.052 29.52 38.992H23.696ZM41.2632 47.336C36.8952 47.336 34.2632 44.564 34.2632 40C34.2632 35.744 36.9232 32.664 41.2632 32.664C45.5472 32.664 48.2352 35.772 48.2352 40C48.2352 44.396 45.4632 47.336 41.2632 47.336ZM41.2632 45.348C42.6912 45.348 43.6992 44.928 44.3712 44.172C45.1832 43.248 45.5192 41.82 45.5192 40C45.5192 38.18 45.1832 36.724 44.3432 35.8C43.6712 35.072 42.6912 34.652 41.2632 34.652C39.8912 34.652 38.8832 35.016 38.2112 35.716C37.3152 36.64 36.9792 38.124 36.9792 40C36.9792 41.876 37.3152 43.36 38.2112 44.284C38.8832 44.984 39.8632 45.348 41.2632 45.348ZM56.9792 47.336C52.6112 47.336 49.9792 44.564 49.9792 40C49.9792 35.744 52.6392 32.664 56.9792 32.664C61.2632 32.664 63.9512 35.772 63.9512 40C63.9512 44.396 61.1792 47.336 56.9792 47.336ZM56.9792 45.348C58.4072 45.348 59.4152 44.928 60.0872 44.172C60.8992 43.248 61.2352 41.82 61.2352 40C61.2352 38.18 60.8992 36.724 60.0592 35.8C59.3872 35.072 58.4072 34.652 56.9792 34.652C55.6072 34.652 54.5992 35.016 53.9272 35.716C53.0312 36.64 52.6952 38.124 52.6952 40C52.6952 41.876 53.0312 43.36 53.9272 44.284C54.5992 44.984 55.5792 45.348 56.9792 45.348ZM76.5873 34.82V27.4H79.1073V47H76.5873V44.956C75.5513 46.552 74.0393 47.336 72.1633 47.336C68.4393 47.336 65.7233 44.564 65.7233 40C65.7233 35.576 68.2993 32.664 72.0793 32.664C74.0393 32.664 75.5233 33.336 76.5873 34.82ZM75.3553 44.34C76.2233 43.472 76.6713 42.016 76.6713 40.028C76.6713 37.424 76.0833 34.68 72.6673 34.68C71.2393 34.68 70.2313 35.1 69.5873 35.856C68.8033 36.78 68.4953 38.18 68.4953 40C68.4953 43.276 69.3353 45.348 72.6113 45.348C73.7873 45.348 74.6833 45.012 75.3553 44.34ZM95.7026 47.336C91.3906 47.336 87.6106 45.18 87.6106 40.616L90.2986 40.336C90.2986 43.472 92.5946 45.208 95.6186 45.208C98.5026 45.208 100.967 44.34 100.967 41.484C100.967 38.768 97.4946 38.824 94.5546 38.124C91.5026 37.396 88.1426 36.332 88.1426 32.58C88.1426 28.576 91.8946 27.064 95.0866 27.064C99.1466 27.064 102.479 28.66 102.899 33.308L100.267 33.784C100.211 30.844 98.2506 29.164 95.0306 29.164C93.1266 29.164 90.7466 30.172 90.7466 32.468C90.7466 34.68 93.7146 35.38 96.3746 35.8C100.267 36.416 103.599 37.116 103.599 41.288C103.599 46.048 99.4826 47.336 95.7026 47.336ZM108.629 47H106.109V27.4H108.629V47ZM123.404 35.436C124.244 36.78 124.692 38.768 124.58 40.756H113.968C114.024 43.836 115.312 45.32 117.944 45.32C120.324 45.32 121.612 44.312 121.948 42.184L124.384 42.38C123.768 45.656 121.528 47.336 117.972 47.336C115.816 47.336 114.136 46.692 112.932 45.292C111.756 43.976 111.224 42.156 111.224 39.972C111.224 37.9 111.812 36.08 112.988 34.764C114.22 33.364 115.928 32.664 117.944 32.664C120.156 32.664 122.256 33.616 123.404 35.436ZM117.972 34.708C116.404 34.708 115.228 35.296 114.668 36.22C114.164 37.06 113.996 38.012 113.996 38.712H122.004C121.976 37.956 121.696 36.892 121.248 36.22C120.52 35.156 119.484 34.708 117.972 34.708ZM138.519 35.436C139.359 36.78 139.807 38.768 139.695 40.756H129.083C129.139 43.836 130.427 45.32 133.059 45.32C135.439 45.32 136.727 44.312 137.063 42.184L139.499 42.38C138.883 45.656 136.643 47.336 133.087 47.336C130.931 47.336 129.251 46.692 128.047 45.292C126.871 43.976 126.339 42.156 126.339 39.972C126.339 37.9 126.927 36.08 128.103 34.764C129.335 33.364 131.043 32.664 133.059 32.664C135.271 32.664 137.371 33.616 138.519 35.436ZM133.087 34.708C131.519 34.708 130.343 35.296 129.783 36.22C129.279 37.06 129.111 38.012 129.111 38.712H137.119C137.091 37.956 136.811 36.892 136.363 36.22C135.635 35.156 134.599 34.708 133.087 34.708ZM149.21 32.664C152.934 32.664 155.65 35.436 155.65 40C155.65 44.424 153.074 47.336 149.294 47.336C147.334 47.336 145.85 46.664 144.786 45.18V52.6H142.266V33H144.786V35.044C145.822 33.448 147.334 32.664 149.21 32.664ZM151.59 44.368C152.514 43.472 152.878 41.988 152.878 40C152.878 36.724 152.038 34.652 148.762 34.652C147.446 34.652 146.438 35.072 145.766 35.94C145.066 36.836 144.702 38.18 144.702 39.972C144.702 42.576 145.29 45.32 148.706 45.32C149.994 45.32 150.946 44.984 151.59 44.368ZM164.035 42.324H161.655V40.7C161.655 39.048 162.299 37.844 164.063 36.192C165.127 35.212 166.191 34.288 166.191 32.664C166.191 30.34 165.043 29.164 162.859 29.164C159.499 29.164 159.135 31.796 159.135 33.308L156.643 32.888C156.643 30.536 157.987 27.064 162.971 27.064C166.415 27.064 168.683 29.248 168.683 32.692C168.683 34.988 167.647 36.052 166.247 37.312C165.099 38.348 164.035 39.3 164.035 41.316V42.324ZM164.315 47H161.487V44.032H164.315V47Z" fill="white"/>
<path d="M1097.64 278H1095.09V260.612H1088.57V258.4H1104.16V260.612H1097.64V278ZM1116.97 265.232C1118.03 266.38 1118.06 268.144 1118.06 269.628V278H1115.46V269.768C1115.46 268.48 1115.48 267.388 1114.62 266.576C1113.83 265.792 1112.91 265.764 1112.12 265.764C1110.86 265.764 1108.48 266.072 1108.48 270.132V278H1105.96V258.4H1108.48V266.1C1109.27 264.42 1110.84 263.664 1112.8 263.664C1114.64 263.664 1115.96 264.168 1116.97 265.232ZM1132.69 266.436C1133.53 267.78 1133.98 269.768 1133.87 271.756H1123.26C1123.31 274.836 1124.6 276.32 1127.23 276.32C1129.61 276.32 1130.9 275.312 1131.24 273.184L1133.67 273.38C1133.06 276.656 1130.82 278.336 1127.26 278.336C1125.1 278.336 1123.42 277.692 1122.22 276.292C1121.04 274.976 1120.51 273.156 1120.51 270.972C1120.51 268.9 1121.1 267.08 1122.28 265.764C1123.51 264.364 1125.22 263.664 1127.23 263.664C1129.44 263.664 1131.54 264.616 1132.69 266.436ZM1127.26 265.708C1125.69 265.708 1124.52 266.296 1123.96 267.22C1123.45 268.06 1123.28 269.012 1123.28 269.712H1131.29C1131.26 268.956 1130.98 267.892 1130.54 267.22C1129.81 266.156 1128.77 265.708 1127.26 265.708ZM1149.36 263.664C1153.09 263.664 1155.8 266.436 1155.8 271C1155.8 275.424 1153.23 278.336 1149.45 278.336C1147.49 278.336 1146 277.664 1144.94 276.18V283.6H1142.42V264H1144.94V266.044C1145.98 264.448 1147.49 263.664 1149.36 263.664ZM1151.74 275.368C1152.67 274.472 1153.03 272.988 1153.03 271C1153.03 267.724 1152.19 265.652 1148.92 265.652C1147.6 265.652 1146.59 266.072 1145.92 266.94C1145.22 267.836 1144.86 269.18 1144.86 270.972C1144.86 273.576 1145.44 276.32 1148.86 276.32C1150.15 276.32 1151.1 275.984 1151.74 275.368ZM1171.12 275.928L1171.18 278C1170.65 278.084 1170.17 278.112 1169.61 278.112C1168.07 278.112 1167.23 277.384 1167.09 275.928C1166.31 277.524 1164.77 278.336 1162.39 278.336C1160.03 278.336 1157.68 277.048 1157.68 274.304C1157.68 271.28 1160.23 270.44 1162.44 270.02L1167.06 269.124C1167.06 267.864 1167.01 267.164 1166.59 266.576C1166.19 266.016 1165.27 265.652 1164.04 265.652C1161.6 265.652 1160.62 266.548 1160.62 268.676L1158.16 268.34C1158.21 266.66 1158.8 265.428 1159.89 264.7C1160.9 264.028 1162.39 263.664 1164.18 263.664C1167.71 263.664 1169.5 265.232 1169.5 268.284V274.976C1169.5 275.704 1169.5 276.04 1170.31 276.04C1170.53 276.04 1170.76 276.012 1171.12 275.928ZM1167.06 272.708V271L1162.83 271.924C1161.35 272.26 1160.26 272.68 1160.26 274.276C1160.26 275.592 1161.41 276.32 1162.78 276.32C1165.83 276.32 1167.06 274.724 1167.06 272.708ZM1183.27 265.96V264H1185.79V277.692C1185.79 281.444 1183.19 283.74 1179.07 283.74C1176.3 283.74 1173.25 282.536 1173.11 279.008L1175.52 278.84C1175.63 281.164 1177.11 281.78 1179.35 281.78C1181.62 281.78 1183.27 280.408 1183.27 277.86V275.48C1182.24 277.104 1180.78 277.888 1178.85 277.888C1174.99 277.888 1172.44 275.004 1172.44 270.636C1172.44 266.492 1175.01 263.664 1178.77 263.664C1180.87 263.664 1182.29 264.476 1183.27 265.96ZM1182.13 274.724C1183.05 273.716 1183.39 272.148 1183.39 270.636C1183.39 267.332 1181.93 265.68 1179.3 265.68C1177.87 265.68 1176.89 266.072 1176.25 266.828C1175.46 267.668 1175.18 268.984 1175.18 270.636C1175.18 273.912 1176.02 275.872 1179.24 275.872C1180.56 275.872 1181.48 275.424 1182.13 274.724ZM1200.58 266.436C1201.42 267.78 1201.87 269.768 1201.76 271.756H1191.14C1191.2 274.836 1192.49 276.32 1195.12 276.32C1197.5 276.32 1198.79 275.312 1199.12 273.184L1201.56 273.38C1200.94 276.656 1198.7 278.336 1195.15 278.336C1192.99 278.336 1191.31 277.692 1190.11 276.292C1188.93 274.976 1188.4 273.156 1188.4 270.972C1188.4 268.9 1188.99 267.08 1190.16 265.764C1191.4 264.364 1193.1 263.664 1195.12 263.664C1197.33 263.664 1199.43 264.616 1200.58 266.436ZM1195.15 265.708C1193.58 265.708 1192.4 266.296 1191.84 267.22C1191.34 268.06 1191.17 269.012 1191.17 269.712H1199.18C1199.15 268.956 1198.87 267.892 1198.42 267.22C1197.7 266.156 1196.66 265.708 1195.15 265.708ZM1213.7 278H1211.21V266.1H1209.19V264H1211.21V261.536C1211.21 259.268 1212.35 258.26 1214.96 258.26C1215.55 258.26 1216.19 258.344 1216.5 258.4L1216.44 260.64C1215.99 260.556 1215.41 260.5 1215.1 260.5C1214.15 260.5 1213.7 260.668 1213.7 261.592V264H1216.55V266.1H1213.7V278ZM1229.52 266.436C1230.36 267.78 1230.81 269.768 1230.69 271.756H1220.08C1220.14 274.836 1221.43 276.32 1224.06 276.32C1226.44 276.32 1227.73 275.312 1228.06 273.184L1230.5 273.38C1229.88 276.656 1227.64 278.336 1224.09 278.336C1221.93 278.336 1220.25 277.692 1219.05 276.292C1217.87 274.976 1217.34 273.156 1217.34 270.972C1217.34 268.9 1217.93 267.08 1219.1 265.764C1220.33 264.364 1222.04 263.664 1224.06 263.664C1226.27 263.664 1228.37 264.616 1229.52 266.436ZM1224.09 265.708C1222.52 265.708 1221.34 266.296 1220.78 267.22C1220.28 268.06 1220.11 269.012 1220.11 269.712H1228.12C1228.09 268.956 1227.81 267.892 1227.36 267.22C1226.63 266.156 1225.6 265.708 1224.09 265.708ZM1235.78 278H1233.26V258.4H1235.78V278ZM1241.71 278H1239.19V258.4H1241.71V278ZM1263.81 275.928L1263.87 278C1263.34 278.084 1262.86 278.112 1262.3 278.112C1260.76 278.112 1259.92 277.384 1259.78 275.928C1259 277.524 1257.46 278.336 1255.08 278.336C1252.72 278.336 1250.37 277.048 1250.37 274.304C1250.37 271.28 1252.92 270.44 1255.13 270.02L1259.75 269.124C1259.75 267.864 1259.7 267.164 1259.28 266.576C1258.88 266.016 1257.96 265.652 1256.73 265.652C1254.29 265.652 1253.31 266.548 1253.31 268.676L1250.85 268.34C1250.9 266.66 1251.49 265.428 1252.58 264.7C1253.59 264.028 1255.08 263.664 1256.87 263.664C1260.4 263.664 1262.19 265.232 1262.19 268.284V274.976C1262.19 275.704 1262.19 276.04 1263 276.04C1263.22 276.04 1263.45 276.012 1263.81 275.928ZM1259.75 272.708V271L1255.52 271.924C1254.04 272.26 1252.95 272.68 1252.95 274.276C1252.95 275.592 1254.1 276.32 1255.47 276.32C1258.52 276.32 1259.75 274.724 1259.75 272.708ZM1270.98 278.336C1267.85 278.336 1265.02 276.88 1265.05 273.408L1267.34 273.184C1267.31 275.144 1268.74 276.348 1270.93 276.348C1273.22 276.348 1274.37 275.564 1274.37 274.08C1274.37 272.484 1271.79 272.288 1269.86 271.784C1267.59 271.196 1265.35 270.524 1265.35 267.752C1265.35 264.84 1268.04 263.664 1270.53 263.664C1273.5 263.664 1276.08 264.84 1276.39 268.256L1274.03 268.62C1273.98 266.688 1272.72 265.652 1270.51 265.652C1269.13 265.652 1267.71 266.296 1267.71 267.584C1267.71 268.872 1269.39 269.236 1271.07 269.6C1273.87 270.188 1276.75 270.664 1276.75 273.94C1276.75 277.356 1273.81 278.336 1270.98 278.336ZM1281.83 278H1279.31V258.4H1281.83V278ZM1296.6 266.436C1297.44 267.78 1297.89 269.768 1297.78 271.756H1287.17C1287.22 274.836 1288.51 276.32 1291.14 276.32C1293.52 276.32 1294.81 275.312 1295.15 273.184L1297.58 273.38C1296.97 276.656 1294.73 278.336 1291.17 278.336C1289.01 278.336 1287.33 277.692 1286.13 276.292C1284.95 274.976 1284.42 273.156 1284.42 270.972C1284.42 268.9 1285.01 267.08 1286.19 265.764C1287.42 264.364 1289.13 263.664 1291.14 263.664C1293.35 263.664 1295.45 264.616 1296.6 266.436ZM1291.17 265.708C1289.6 265.708 1288.43 266.296 1287.87 267.22C1287.36 268.06 1287.19 269.012 1287.19 269.712H1295.2C1295.17 268.956 1294.89 267.892 1294.45 267.22C1293.72 266.156 1292.68 265.708 1291.17 265.708ZM1311.72 266.436C1312.56 267.78 1313 269.768 1312.89 271.756H1302.28C1302.34 274.836 1303.62 276.32 1306.26 276.32C1308.64 276.32 1309.92 275.312 1310.26 273.184L1312.7 273.38C1312.08 276.656 1309.84 278.336 1306.28 278.336C1304.13 278.336 1302.45 277.692 1301.24 276.292C1300.07 274.976 1299.54 273.156 1299.54 270.972C1299.54 268.9 1300.12 267.08 1301.3 265.764C1302.53 264.364 1304.24 263.664 1306.26 263.664C1308.47 263.664 1310.57 264.616 1311.72 266.436ZM1306.28 265.708C1304.72 265.708 1303.54 266.296 1302.98 267.22C1302.48 268.06 1302.31 269.012 1302.31 269.712H1310.32C1310.29 268.956 1310.01 267.892 1309.56 267.22C1308.83 266.156 1307.8 265.708 1306.28 265.708ZM1322.41 263.664C1326.13 263.664 1328.85 266.436 1328.85 271C1328.85 275.424 1326.27 278.336 1322.49 278.336C1320.53 278.336 1319.05 277.664 1317.98 276.18V283.6H1315.46V264H1317.98V266.044C1319.02 264.448 1320.53 263.664 1322.41 263.664ZM1324.79 275.368C1325.71 274.472 1326.07 272.988 1326.07 271C1326.07 267.724 1325.23 265.652 1321.96 265.652C1320.64 265.652 1319.63 266.072 1318.96 266.94C1318.26 267.836 1317.9 269.18 1317.9 270.972C1317.9 273.576 1318.49 276.32 1321.9 276.32C1323.19 276.32 1324.14 275.984 1324.79 275.368ZM1341.97 278.14C1339.37 278.14 1338.22 277.132 1338.22 274.864V266.1H1336.2V264H1338.22V260.108H1340.71V264H1343.57V266.1H1340.71V274.78C1340.71 275.704 1341.13 275.872 1342.17 275.872C1342.47 275.872 1342.98 275.816 1343.45 275.732L1343.51 278C1343.06 278.084 1342.47 278.14 1341.97 278.14ZM1351.71 278.336C1347.34 278.336 1344.71 275.564 1344.71 271C1344.71 266.744 1347.37 263.664 1351.71 263.664C1355.99 263.664 1358.68 266.772 1358.68 271C1358.68 275.396 1355.91 278.336 1351.71 278.336ZM1351.71 276.348C1353.14 276.348 1354.14 275.928 1354.82 275.172C1355.63 274.248 1355.96 272.82 1355.96 271C1355.96 269.18 1355.63 267.724 1354.79 266.8C1354.12 266.072 1353.14 265.652 1351.71 265.652C1350.34 265.652 1349.33 266.016 1348.66 266.716C1347.76 267.64 1347.42 269.124 1347.42 271C1347.42 272.876 1347.76 274.36 1348.66 275.284C1349.33 275.984 1350.31 276.348 1351.71 276.348ZM1367.42 278.336C1363.06 278.336 1360.42 275.564 1360.42 271C1360.42 266.744 1363.08 263.664 1367.42 263.664C1371.71 263.664 1374.4 266.772 1374.4 271C1374.4 275.396 1371.62 278.336 1367.42 278.336ZM1367.42 276.348C1368.85 276.348 1369.86 275.928 1370.53 275.172C1371.34 274.248 1371.68 272.82 1371.68 271C1371.68 269.18 1371.34 267.724 1370.5 266.8C1369.83 266.072 1368.85 265.652 1367.42 265.652C1366.05 265.652 1365.04 266.016 1364.37 266.716C1363.48 267.64 1363.14 269.124 1363.14 271C1363.14 272.876 1363.48 274.36 1364.37 275.284C1365.04 275.984 1366.02 276.348 1367.42 276.348ZM1379.09 278H1376.26V275.032H1379.09V278Z" fill="white"/>
</svg>
