<svg width="328" height="264" viewBox="0 0 328 264" fill="none" xmlns="http://www.w3.org/2000/svg">
<path d="M6.536 49H3.656V26.6H18.12V29.192H6.536V36.392H16.936V38.984H6.536V49ZM27.5308 32.648C27.7868 32.616 28.3948 32.616 28.6188 32.616L28.5548 35.336C28.3628 35.304 28.1068 35.304 27.8188 35.304C24.7788 35.304 22.5708 36.264 22.5708 41.416V49H19.6908V33H22.5708V35.816C23.0188 34.28 24.9068 32.84 27.5308 32.648ZM42.699 35.784C43.659 37.32 44.171 39.592 44.043 41.864H31.915C31.979 45.384 33.451 47.08 36.459 47.08C39.179 47.08 40.651 45.928 41.035 43.496L43.819 43.72C43.115 47.464 40.555 49.384 36.491 49.384C34.027 49.384 32.107 48.648 30.731 47.048C29.387 45.544 28.779 43.464 28.779 40.968C28.779 38.6 29.451 36.52 30.795 35.016C32.203 33.416 34.155 32.616 36.459 32.616C38.987 32.616 41.387 33.704 42.699 35.784ZM36.491 34.952C34.699 34.952 33.355 35.624 32.715 36.68C32.139 37.64 31.947 38.728 31.947 39.528H41.099C41.067 38.664 40.747 37.448 40.235 36.68C39.403 35.464 38.219 34.952 36.491 34.952ZM58.1488 35.336V33H61.0288V55.4H58.1488V46.92C56.9328 48.616 55.2368 49.384 52.9968 49.384C48.6768 49.384 45.7328 46.056 45.7328 41C45.7328 35.784 48.8368 32.584 53.0928 32.584C55.2368 32.584 56.9648 33.512 58.1488 35.336ZM56.8368 45.928C57.9888 44.776 58.2448 42.824 58.2448 40.968C58.2448 36.936 56.6768 34.856 53.6048 34.856C51.9728 34.856 50.8528 35.304 50.1488 36.136C49.1888 37.224 48.9008 38.888 48.9008 41C48.9008 44.84 50.0848 47.08 53.6688 47.08C55.1088 47.08 56.1328 46.632 56.8368 45.928ZM75.3985 41.992V33H78.2785V49H75.3985V46.6C74.5345 48.424 72.7425 49.384 70.4705 49.384C68.3905 49.384 66.8865 48.808 65.7345 47.592C64.4865 46.28 64.4545 44.264 64.4545 42.568V33H67.4305V42.408C67.4305 43.88 67.3985 45.128 68.3585 46.056C69.2865 46.952 70.3425 46.984 71.2705 46.984C72.7105 46.984 75.3985 46.632 75.3985 41.992ZM94.8415 35.784C95.8015 37.32 96.3135 39.592 96.1855 41.864H84.0575C84.1215 45.384 85.5935 47.08 88.6015 47.08C91.3215 47.08 92.7935 45.928 93.1775 43.496L95.9615 43.72C95.2575 47.464 92.6975 49.384 88.6335 49.384C86.1695 49.384 84.2495 48.648 82.8735 47.048C81.5295 45.544 80.9215 43.464 80.9215 40.968C80.9215 38.6 81.5935 36.52 82.9375 35.016C84.3455 33.416 86.2975 32.616 88.6015 32.616C91.1295 32.616 93.5295 33.704 94.8415 35.784ZM88.6335 34.952C86.8415 34.952 85.4975 35.624 84.8575 36.68C84.2815 37.64 84.0895 38.728 84.0895 39.528H93.2415C93.2095 38.664 92.8895 37.448 92.3775 36.68C91.5455 35.464 90.3615 34.952 88.6335 34.952ZM111.379 34.408C112.595 35.72 112.627 37.8 112.627 39.496V49H109.651V39.656C109.651 38.184 109.683 36.872 108.691 35.944C107.795 35.048 106.739 35.016 105.843 35.016C104.435 35.016 101.683 35.592 101.683 40.168V49H98.8033V33H101.683V35.432C102.483 33.64 104.051 32.616 106.611 32.616C108.723 32.616 110.227 33.192 111.379 34.408ZM121.066 49.16C118.09 49.16 116.778 48.008 116.778 45.416V35.4H114.474V33H116.778V28.552H119.626V33H122.89V35.4H119.626V45.32C119.626 46.376 120.106 46.568 121.29 46.568C121.642 46.568 122.218 46.504 122.762 46.408L122.826 49C122.314 49.096 121.642 49.16 121.066 49.16ZM127.934 49H125.054V26.6H127.934V49ZM138.58 41.64L141.652 33H144.66L138.132 50.472C136.82 53.992 135.668 55.56 133.46 55.56C132.692 55.56 131.828 55.464 131.028 55.24L131.092 52.552C131.668 52.744 132.34 52.904 133.076 52.904C134.26 52.904 134.804 51.592 135.86 48.872L129.62 33H132.692L135.732 41.64C136.116 42.728 136.628 44.296 137.14 45.896C137.78 43.944 138.132 42.92 138.58 41.64Z" fill="#1D0505"/>
<path d="M260.89 127H257.85L255.354 120.312H245.85L243.386 127H240.314L249.082 104.6H252.154L260.89 127ZM249.306 111L246.81 117.752H254.394L251.866 111C251.418 109.816 250.906 108.344 250.586 107.384H250.554C250.17 108.568 249.818 109.592 249.306 111ZM268.232 127.384C264.648 127.384 261.416 125.72 261.448 121.752L264.072 121.496C264.04 123.736 265.672 125.112 268.168 125.112C270.792 125.112 272.104 124.216 272.104 122.52C272.104 120.696 269.16 120.472 266.952 119.896C264.36 119.224 261.8 118.456 261.8 115.288C261.8 111.96 264.872 110.616 267.72 110.616C271.112 110.616 274.056 111.96 274.408 115.864L271.72 116.28C271.656 114.072 270.216 112.888 267.688 112.888C266.12 112.888 264.488 113.624 264.488 115.096C264.488 116.568 266.408 116.984 268.328 117.4C271.528 118.072 274.824 118.616 274.824 122.36C274.824 126.264 271.464 127.384 268.232 127.384ZM291.186 127H287.826L282.546 118.776L280.306 120.888V127H277.426V104.6H280.306V117.624L286.994 111H290.898L284.562 116.856L291.186 127ZM304.934 113.784C305.894 115.32 306.406 117.592 306.278 119.864H294.15C294.214 123.384 295.686 125.08 298.694 125.08C301.414 125.08 302.886 123.928 303.27 121.496L306.054 121.72C305.35 125.464 302.79 127.384 298.726 127.384C296.262 127.384 294.342 126.648 292.966 125.048C291.622 123.544 291.014 121.464 291.014 118.968C291.014 116.6 291.686 114.52 293.03 113.016C294.438 111.416 296.39 110.616 298.694 110.616C301.222 110.616 303.622 111.704 304.934 113.784ZM298.726 112.952C296.934 112.952 295.59 113.624 294.95 114.68C294.374 115.64 294.182 116.728 294.182 117.528H303.334C303.302 116.664 302.982 115.448 302.47 114.68C301.638 113.464 300.454 112.952 298.726 112.952ZM320.384 113.08V104.6H323.264V127H320.384V124.664C319.2 126.488 317.472 127.384 315.328 127.384C311.072 127.384 307.968 124.216 307.968 119C307.968 113.944 310.912 110.616 315.232 110.616C317.472 110.616 319.168 111.384 320.384 113.08ZM318.976 123.96C319.968 122.968 320.48 121.304 320.48 119.032C320.48 116.056 319.808 112.92 315.904 112.92C314.272 112.92 313.12 113.4 312.384 114.264C311.488 115.32 311.136 116.92 311.136 119C311.136 122.744 312.096 125.112 315.84 125.112C317.184 125.112 318.208 124.728 318.976 123.96Z" fill="#1D0505"/>
<path d="M23.56 190.8C23.56 194.608 22.472 197.648 20.264 199.728L23.08 201.968L21.448 203.952L18.12 201.264C16.616 202.064 14.856 202.384 12.968 202.384C6.184 202.384 2.344 198.256 2.344 190.8C2.344 184.016 6.088 179.216 12.968 179.216C19.752 179.216 23.56 184.048 23.56 190.8ZM7.208 197.424C8.456 199.024 10.44 199.92 12.968 199.92C14.12 199.92 15.112 199.824 15.944 199.504L13.192 197.296L14.856 195.28L18.152 197.936C19.656 196.496 20.296 193.424 20.296 190.8C20.296 187.888 19.688 185.872 18.568 184.272C17.416 182.608 15.624 181.744 13.096 181.744C10.184 181.744 8.264 182.896 7.304 184.144C6.216 185.584 5.608 187.92 5.608 190.8C5.608 193.904 6.344 196.304 7.208 197.424ZM37.1935 194.992V186H40.0735V202H37.1935V199.6C36.3295 201.424 34.5375 202.384 32.2655 202.384C30.1855 202.384 28.6815 201.808 27.5295 200.592C26.2815 199.28 26.2495 197.264 26.2495 195.568V186H29.2255V195.408C29.2255 196.88 29.1935 198.128 30.1535 199.056C31.0815 199.952 32.1375 199.984 33.0655 199.984C34.5055 199.984 37.1935 199.632 37.1935 194.992ZM56.6365 188.784C57.5965 190.32 58.1085 192.592 57.9805 194.864H45.8525C45.9165 198.384 47.3885 200.08 50.3965 200.08C53.1165 200.08 54.5885 198.928 54.9725 196.496L57.7565 196.72C57.0525 200.464 54.4925 202.384 50.4285 202.384C47.9645 202.384 46.0445 201.648 44.6685 200.048C43.3245 198.544 42.7165 196.464 42.7165 193.968C42.7165 191.6 43.3885 189.52 44.7325 188.016C46.1405 186.416 48.0925 185.616 50.3965 185.616C52.9245 185.616 55.3245 186.704 56.6365 188.784ZM50.4285 187.952C48.6365 187.952 47.2925 188.624 46.6525 189.68C46.0765 190.64 45.8845 191.728 45.8845 192.528H55.0365C55.0045 191.664 54.6845 190.448 54.1725 189.68C53.3405 188.464 52.1565 187.952 50.4285 187.952ZM66.3583 202.384C62.7743 202.384 59.5423 200.72 59.5743 196.752L62.1983 196.496C62.1663 198.736 63.7983 200.112 66.2943 200.112C68.9183 200.112 70.2303 199.216 70.2303 197.52C70.2303 195.696 67.2863 195.472 65.0783 194.896C62.4863 194.224 59.9263 193.456 59.9263 190.288C59.9263 186.96 62.9983 185.616 65.8463 185.616C69.2383 185.616 72.1823 186.96 72.5343 190.864L69.8463 191.28C69.7823 189.072 68.3423 187.888 65.8143 187.888C64.2463 187.888 62.6143 188.624 62.6143 190.096C62.6143 191.568 64.5343 191.984 66.4543 192.4C69.6543 193.072 72.9503 193.616 72.9503 197.36C72.9503 201.264 69.5903 202.384 66.3583 202.384ZM80.5798 202.16C77.6038 202.16 76.2918 201.008 76.2918 198.416V188.4H73.9878V186H76.2918V181.552H79.1398V186H82.4038V188.4H79.1398V198.32C79.1398 199.376 79.6198 199.568 80.8038 199.568C81.1558 199.568 81.7318 199.504 82.2758 199.408L82.3398 202C81.8278 202.096 81.1558 202.16 80.5798 202.16ZM87.4483 182.992H84.5683V179.6H87.4483V182.992ZM87.4483 202H84.5683V186H87.4483V202ZM98.062 202.384C93.07 202.384 90.062 199.216 90.062 194C90.062 189.136 93.102 185.616 98.062 185.616C102.958 185.616 106.03 189.168 106.03 194C106.03 199.024 102.862 202.384 98.062 202.384ZM98.062 200.112C99.694 200.112 100.846 199.632 101.614 198.768C102.542 197.712 102.926 196.08 102.926 194C102.926 191.92 102.542 190.256 101.582 189.2C100.814 188.368 99.694 187.888 98.062 187.888C96.494 187.888 95.342 188.304 94.574 189.104C93.55 190.16 93.166 191.856 93.166 194C93.166 196.144 93.55 197.84 94.574 198.896C95.342 199.696 96.462 200.112 98.062 200.112ZM121.239 187.408C122.455 188.72 122.487 190.8 122.487 192.496V202H119.511V192.656C119.511 191.184 119.543 189.872 118.551 188.944C117.655 188.048 116.599 188.016 115.703 188.016C114.295 188.016 111.543 188.592 111.543 193.168V202H108.663V186H111.543V188.432C112.343 186.64 113.911 185.616 116.471 185.616C118.583 185.616 120.087 186.192 121.239 187.408ZM131.658 202.384C128.074 202.384 124.842 200.72 124.874 196.752L127.498 196.496C127.466 198.736 129.098 200.112 131.594 200.112C134.218 200.112 135.53 199.216 135.53 197.52C135.53 195.696 132.586 195.472 130.378 194.896C127.786 194.224 125.226 193.456 125.226 190.288C125.226 186.96 128.298 185.616 131.146 185.616C134.538 185.616 137.482 186.96 137.834 190.864L135.146 191.28C135.082 189.072 133.642 187.888 131.114 187.888C129.546 187.888 127.914 188.624 127.914 190.096C127.914 191.568 129.834 191.984 131.754 192.4C134.954 193.072 138.25 193.616 138.25 197.36C138.25 201.264 134.89 202.384 131.658 202.384Z" fill="#1D0505"/>
<path d="M1.68866 1L287.47 1C308.921 1 326.516 18.2385 326.516 39.3304C326.516 60.4223 308.956 77.6608 287.47 77.6608H40.0468C18.5952 77.6608 1 94.8994 1 115.991C1 137.049 18.5607 154.322 40.0468 154.322H63.2462H287.125C308.577 154.322 326.172 171.56 326.172 192.652C326.172 213.71 308.611 230.983 287.125 230.983H160.992V256" stroke="#D9CEDF" stroke-miterlimit="10"/>
<ellipse cx="160.808" cy="262" rx="2.03773" ry="2" fill="#D9CEDF"/>
</svg>
