<svg width="1322" height="264" viewBox="0 0 1322 264" fill="none" xmlns="http://www.w3.org/2000/svg">
<path d="M9.67729 58H5.35729V24.4H27.0533V28.288H9.67729V39.088H25.2773V42.976H9.67729V58ZM41.1694 33.472C41.5534 33.424 42.4654 33.424 42.8014 33.424L42.7054 37.504C42.4174 37.456 42.0334 37.456 41.6014 37.456C37.0414 37.456 33.7294 38.896 33.7294 46.624V58H29.4094V34H33.7294V38.224C34.4014 35.92 37.2334 33.76 41.1694 33.472ZM63.9218 38.176C65.3618 40.48 66.1298 43.888 65.9378 47.296H47.7458C47.8418 52.576 50.0498 55.12 54.5618 55.12C58.6418 55.12 60.8498 53.392 61.4258 49.744L65.6018 50.08C64.5458 55.696 60.7058 58.576 54.6098 58.576C50.9138 58.576 48.0338 57.472 45.9698 55.072C43.9538 52.816 43.0418 49.696 43.0418 45.952C43.0418 42.4 44.0498 39.28 46.0658 37.024C48.1778 34.624 51.1058 33.424 54.5618 33.424C58.3538 33.424 61.9538 35.056 63.9218 38.176ZM54.6098 36.928C51.9218 36.928 49.9058 37.936 48.9458 39.52C48.0818 40.96 47.7938 42.592 47.7938 43.792H61.5218C61.4738 42.496 60.9938 40.672 60.2258 39.52C58.9778 37.696 57.2018 36.928 54.6098 36.928ZM87.0964 37.504V34H91.4164V67.6H87.0964V54.88C85.2724 57.424 82.7284 58.576 79.3684 58.576C72.8884 58.576 68.4724 53.584 68.4724 46C68.4724 38.176 73.1284 33.376 79.5124 33.376C82.7284 33.376 85.3204 34.768 87.0964 37.504ZM85.1284 53.392C86.8564 51.664 87.2404 48.736 87.2404 45.952C87.2404 39.904 84.8884 36.784 80.2804 36.784C77.8324 36.784 76.1524 37.456 75.0964 38.704C73.6564 40.336 73.2244 42.832 73.2244 46C73.2244 51.76 75.0004 55.12 80.3764 55.12C82.5364 55.12 84.0724 54.448 85.1284 53.392ZM112.971 47.488V34H117.291V58H112.971V54.4C111.675 57.136 108.987 58.576 105.579 58.576C102.459 58.576 100.203 57.712 98.475 55.888C96.603 53.92 96.555 50.896 96.555 48.352V34H101.019V48.112C101.019 50.32 100.971 52.192 102.411 53.584C103.803 54.928 105.387 54.976 106.779 54.976C108.939 54.976 112.971 54.448 112.971 47.488ZM142.136 38.176C143.576 40.48 144.344 43.888 144.152 47.296H125.96C126.056 52.576 128.264 55.12 132.776 55.12C136.856 55.12 139.064 53.392 139.64 49.744L143.816 50.08C142.76 55.696 138.92 58.576 132.824 58.576C129.128 58.576 126.248 57.472 124.184 55.072C122.168 52.816 121.256 49.696 121.256 45.952C121.256 42.4 122.264 39.28 124.28 37.024C126.392 34.624 129.32 33.424 132.776 33.424C136.568 33.424 140.168 35.056 142.136 38.176ZM132.824 36.928C130.136 36.928 128.12 37.936 127.16 39.52C126.296 40.96 126.008 42.592 126.008 43.792H139.736C139.688 42.496 139.208 40.672 138.44 39.52C137.192 37.696 135.416 36.928 132.824 36.928ZM166.942 36.112C168.766 38.08 168.814 41.2 168.814 43.744V58H164.35V43.984C164.35 41.776 164.398 39.808 162.91 38.416C161.566 37.072 159.982 37.024 158.638 37.024C156.526 37.024 152.398 37.888 152.398 44.752V58H148.078V34H152.398V37.648C153.598 34.96 155.95 33.424 159.79 33.424C162.958 33.424 165.214 34.288 166.942 36.112ZM181.472 58.24C177.008 58.24 175.04 56.512 175.04 52.624V37.6H171.584V34H175.04V27.328H179.312V34H184.208V37.6H179.312V52.48C179.312 54.064 180.032 54.352 181.808 54.352C182.336 54.352 183.2 54.256 184.016 54.112L184.112 58C183.344 58.144 182.336 58.24 181.472 58.24ZM191.775 58H187.455V24.4H191.775V58ZM207.744 46.96L212.352 34H216.864L207.072 60.208C205.104 65.488 203.376 67.84 200.064 67.84C198.912 67.84 197.616 67.696 196.416 67.36L196.512 63.328C197.376 63.616 198.384 63.856 199.488 63.856C201.264 63.856 202.08 61.888 203.664 57.808L194.304 34H198.912L203.472 46.96C204.048 48.592 204.816 50.944 205.584 53.344C206.544 50.416 207.072 48.88 207.744 46.96Z" fill="#1D0505"/>
<path d="M1037.33 134H1032.77L1029.03 123.968H1014.77L1011.08 134H1006.47L1019.62 100.4H1024.23L1037.33 134ZM1019.96 110L1016.21 120.128H1027.59L1023.8 110C1023.13 108.224 1022.36 106.016 1021.88 104.576H1021.83C1021.25 106.352 1020.73 107.888 1019.96 110ZM1048.35 134.576C1042.97 134.576 1038.12 132.08 1038.17 126.128L1042.11 125.744C1042.06 129.104 1044.51 131.168 1048.25 131.168C1052.19 131.168 1054.15 129.824 1054.15 127.28C1054.15 124.544 1049.74 124.208 1046.43 123.344C1042.54 122.336 1038.7 121.184 1038.7 116.432C1038.7 111.44 1043.31 109.424 1047.58 109.424C1052.67 109.424 1057.08 111.44 1057.61 117.296L1053.58 117.92C1053.48 114.608 1051.32 112.832 1047.53 112.832C1045.18 112.832 1042.73 113.936 1042.73 116.144C1042.73 118.352 1045.61 118.976 1048.49 119.6C1053.29 120.608 1058.23 121.424 1058.23 127.04C1058.23 132.896 1053.19 134.576 1048.35 134.576ZM1082.78 134H1077.74L1069.82 121.664L1066.46 124.832V134H1062.14V100.4H1066.46V119.936L1076.49 110H1082.34L1072.84 118.784L1082.78 134ZM1103.4 114.176C1104.84 116.48 1105.61 119.888 1105.42 123.296H1087.22C1087.32 128.576 1089.53 131.12 1094.04 131.12C1098.12 131.12 1100.33 129.392 1100.9 125.744L1105.08 126.08C1104.02 131.696 1100.18 134.576 1094.09 134.576C1090.39 134.576 1087.51 133.472 1085.45 131.072C1083.43 128.816 1082.52 125.696 1082.52 121.952C1082.52 118.4 1083.53 115.28 1085.54 113.024C1087.66 110.624 1090.58 109.424 1094.04 109.424C1097.83 109.424 1101.43 111.056 1103.4 114.176ZM1094.09 112.928C1091.4 112.928 1089.38 113.936 1088.42 115.52C1087.56 116.96 1087.27 118.592 1087.27 119.792H1101C1100.95 118.496 1100.47 116.672 1099.7 115.52C1098.46 113.696 1096.68 112.928 1094.09 112.928ZM1126.57 113.12V100.4H1130.89V134H1126.57V130.496C1124.8 133.232 1122.21 134.576 1118.99 134.576C1112.61 134.576 1107.95 129.824 1107.95 122C1107.95 114.416 1112.37 109.424 1118.85 109.424C1122.21 109.424 1124.75 110.576 1126.57 113.12ZM1124.46 129.44C1125.95 127.952 1126.72 125.456 1126.72 122.048C1126.72 117.584 1125.71 112.88 1119.85 112.88C1117.41 112.88 1115.68 113.6 1114.57 114.896C1113.23 116.48 1112.7 118.88 1112.7 122C1112.7 127.616 1114.14 131.168 1119.76 131.168C1121.77 131.168 1123.31 130.592 1124.46 129.44Z" fill="#1D0505"/>
<path d="M593.213 193.2C593.213 198.912 591.581 203.472 588.269 206.592L592.493 209.952L590.045 212.928L585.053 208.896C582.797 210.096 580.157 210.576 577.325 210.576C567.149 210.576 561.389 204.384 561.389 193.2C561.389 183.024 567.005 175.824 577.325 175.824C587.501 175.824 593.213 183.072 593.213 193.2ZM568.685 203.136C570.557 205.536 573.533 206.88 577.325 206.88C579.053 206.88 580.541 206.736 581.789 206.256L577.661 202.944L580.157 199.92L585.101 203.904C587.357 201.744 588.317 197.136 588.317 193.2C588.317 188.832 587.405 185.808 585.725 183.408C583.997 180.912 581.309 179.616 577.517 179.616C573.149 179.616 570.269 181.344 568.829 183.216C567.197 185.376 566.285 188.88 566.285 193.2C566.285 197.856 567.389 201.456 568.685 203.136ZM613.664 199.488V186H617.984V210H613.664V206.4C612.368 209.136 609.68 210.576 606.272 210.576C603.152 210.576 600.896 209.712 599.168 207.888C597.296 205.92 597.248 202.896 597.248 200.352V186H601.712V200.112C601.712 202.32 601.664 204.192 603.104 205.584C604.496 206.928 606.08 206.976 607.472 206.976C609.632 206.976 613.664 206.448 613.664 199.488ZM642.828 190.176C644.268 192.48 645.036 195.888 644.844 199.296H626.652C626.748 204.576 628.956 207.12 633.468 207.12C637.548 207.12 639.756 205.392 640.332 201.744L644.508 202.08C643.452 207.696 639.612 210.576 633.516 210.576C629.82 210.576 626.94 209.472 624.876 207.072C622.86 204.816 621.948 201.696 621.948 197.952C621.948 194.4 622.956 191.28 624.972 189.024C627.084 186.624 630.012 185.424 633.468 185.424C637.26 185.424 640.86 187.056 642.828 190.176ZM633.516 188.928C630.828 188.928 628.812 189.936 627.852 191.52C626.988 192.96 626.7 194.592 626.7 195.792H640.428C640.38 194.496 639.9 192.672 639.132 191.52C637.884 189.696 636.108 188.928 633.516 188.928ZM657.411 210.576C652.035 210.576 647.187 208.08 647.235 202.128L651.171 201.744C651.123 205.104 653.571 207.168 657.315 207.168C661.251 207.168 663.219 205.824 663.219 203.28C663.219 200.544 658.803 200.208 655.491 199.344C651.603 198.336 647.763 197.184 647.763 192.432C647.763 187.44 652.371 185.424 656.643 185.424C661.731 185.424 666.147 187.44 666.675 193.296L662.643 193.92C662.547 190.608 660.387 188.832 656.595 188.832C654.243 188.832 651.795 189.936 651.795 192.144C651.795 194.352 654.675 194.976 657.555 195.6C662.355 196.608 667.299 197.424 667.299 203.04C667.299 208.896 662.259 210.576 657.411 210.576ZM678.743 210.24C674.279 210.24 672.311 208.512 672.311 204.624V189.6H668.855V186H672.311V179.328H676.583V186H681.479V189.6H676.583V204.48C676.583 206.064 677.303 206.352 679.079 206.352C679.607 206.352 680.471 206.256 681.287 206.112L681.383 210C680.615 210.144 679.607 210.24 678.743 210.24ZM689.046 181.488H684.726V176.4H689.046V181.488ZM689.046 210H684.726V186H689.046V210ZM704.966 210.576C697.478 210.576 692.966 205.824 692.966 198C692.966 190.704 697.526 185.424 704.966 185.424C712.31 185.424 716.918 190.752 716.918 198C716.918 205.536 712.166 210.576 704.966 210.576ZM704.966 207.168C707.414 207.168 709.142 206.448 710.294 205.152C711.686 203.568 712.262 201.12 712.262 198C712.262 194.88 711.686 192.384 710.246 190.8C709.094 189.552 707.414 188.832 704.966 188.832C702.614 188.832 700.886 189.456 699.734 190.656C698.198 192.24 697.622 194.784 697.622 198C697.622 201.216 698.198 203.76 699.734 205.344C700.886 206.544 702.566 207.168 704.966 207.168ZM739.732 188.112C741.556 190.08 741.604 193.2 741.604 195.744V210H737.14V195.984C737.14 193.776 737.188 191.808 735.7 190.416C734.356 189.072 732.772 189.024 731.428 189.024C729.316 189.024 725.188 189.888 725.188 196.752V210H720.868V186H725.188V189.648C726.388 186.96 728.74 185.424 732.58 185.424C735.748 185.424 738.004 186.288 739.732 188.112ZM755.361 210.576C749.985 210.576 745.137 208.08 745.185 202.128L749.121 201.744C749.073 205.104 751.521 207.168 755.265 207.168C759.201 207.168 761.169 205.824 761.169 203.28C761.169 200.544 756.753 200.208 753.441 199.344C749.553 198.336 745.713 197.184 745.713 192.432C745.713 187.44 750.321 185.424 754.593 185.424C759.681 185.424 764.097 187.44 764.625 193.296L760.593 193.92C760.497 190.608 758.337 188.832 754.545 188.832C752.193 188.832 749.745 189.936 749.745 192.144C749.745 194.352 752.625 194.976 755.505 195.6C760.305 196.608 765.249 197.424 765.249 203.04C765.249 208.896 760.209 210.576 755.361 210.576Z" fill="#1D0505"/>
<path d="M1.67678 1L1283 1C1304.08 1 1321.37 18.2385 1321.37 39.3304C1321.37 60.4223 1304.12 77.6608 1283 77.6608H39.3733C18.2917 77.6608 1 94.8994 1 115.991C1 137.049 18.2578 154.322 39.3733 154.322H372.172H1282.66C1303.74 154.322 1321.03 171.56 1321.03 192.652C1321.03 213.71 1303.78 230.983 1282.66 230.983H652.373V256" stroke="#D9CEDF" stroke-miterlimit="10"/>
<circle cx="652.373" cy="262" r="2" fill="#D9CEDF"/>
</svg>
