<svg width="67" height="67" viewBox="0 0 67 67" fill="none" xmlns="http://www.w3.org/2000/svg">
<g id="Group 51291588">
<path id="Vector" d="M51.9634 7.48926C55.4517 12.6175 57.4808 18.8019 57.4808 25.4588C57.4808 43.1365 43.1524 57.4788 25.4608 57.4788C18.7899 57.4788 12.6055 55.4359 7.49121 51.9615C13.2448 60.439 22.9731 65.998 33.98 65.998C51.6577 65.998 66 51.6696 66 33.978C66 22.9572 60.427 13.2428 51.9634 7.48926Z" stroke="#1D1D1B" stroke-width="2" stroke-linecap="round" stroke-linejoin="round"/>
<path id="Vector_2" d="M57.4798 25.4578C57.4798 18.787 55.4368 12.6026 51.9624 7.48829C46.8342 4 40.6498 1.97096 33.9929 1.97096C16.3013 1.95706 1.95898 16.2993 1.95898 33.977C1.95898 40.6479 4.00193 46.8323 7.47632 51.9466C12.6045 55.4349 18.7889 57.4639 25.4459 57.4639C43.1236 57.4639 57.4659 43.1355 57.4659 25.4439L57.4798 25.4578Z" stroke="#1D1D1B" stroke-width="2" stroke-linecap="round" stroke-linejoin="round"/>
</g>
</svg>
