<svg width="18" height="18" viewBox="0 0 18 18" fill="none" xmlns="http://www.w3.org/2000/svg">
<path d="M8.60156 4.01086C10.0968 4.01086 10.2741 4.01646 10.8649 4.04353C12.3825 4.1126 13.0914 4.83266 13.1604 6.33906C13.1875 6.9294 13.1926 7.10673 13.1926 8.60193C13.1926 10.0976 13.187 10.2745 13.1604 10.8648C13.0909 12.3698 12.3839 13.0913 10.8649 13.1603C10.2741 13.1874 10.0977 13.193 8.60156 13.193C7.10636 13.193 6.92903 13.1874 6.3387 13.1603C4.81736 13.0908 4.11223 12.3675 4.04316 10.8643C4.0161 10.274 4.0105 10.0971 4.0105 8.60146C4.0105 7.10627 4.01656 6.9294 4.04316 6.3386C4.1127 4.83266 4.8197 4.11213 6.3387 4.04306C6.9295 4.01646 7.10636 4.01086 8.60156 4.01086ZM8.60156 3.00146C7.0807 3.00146 6.8903 3.008 6.29296 3.03506C4.25923 3.1284 3.12896 4.2568 3.03563 6.2924C3.0081 6.8902 3.00156 7.0806 3.00156 8.60146C3.00156 10.1223 3.0081 10.3132 3.03516 10.9105C3.1285 12.9443 4.2569 14.0745 6.2925 14.1679C6.8903 14.1949 7.0807 14.2015 8.60156 14.2015C10.1224 14.2015 10.3133 14.1949 10.9106 14.1679C12.9425 14.0745 14.0756 12.9461 14.1675 10.9105C14.195 10.3132 14.2016 10.1223 14.2016 8.60146C14.2016 7.0806 14.195 6.8902 14.168 6.29286C14.0765 4.261 12.9467 3.12886 10.9111 3.03553C10.3133 3.008 10.1224 3.00146 8.60156 3.00146ZM8.60156 5.72586C7.0135 5.72586 5.72596 7.0134 5.72596 8.60146C5.72596 10.1895 7.0135 11.4775 8.60156 11.4775C10.1896 11.4775 11.4772 10.19 11.4772 8.60146C11.4772 7.0134 10.1896 5.72586 8.60156 5.72586ZM8.60156 10.4681C7.5707 10.4681 6.7349 9.6328 6.7349 8.60146C6.7349 7.5706 7.5707 6.7348 8.60156 6.7348C9.63243 6.7348 10.4682 7.5706 10.4682 8.60146C10.4682 9.6328 9.63243 10.4681 8.60156 10.4681ZM11.591 4.94046C11.2196 4.94046 10.9186 5.24146 10.9186 5.61246C10.9186 5.98346 11.2196 6.28446 11.591 6.28446C11.962 6.28446 12.2626 5.98346 12.2626 5.61246C12.2626 5.24146 11.962 4.94046 11.591 4.94046Z" fill="black"/>
</svg>
