<svg width="1400" height="136" viewBox="0 0 1400 136" fill="none" xmlns="http://www.w3.org/2000/svg">
<path d="M0 1H1376.54C1388.88 1 1399 11.0441 1399 23.3333C1399 35.6226 1388.9 45.6667 1376.54 45.6667H23.6347C11.2934 45.6667 1.1708 55.7108 1.1708 68C1.1708 80.2695 11.2736 90.3333 23.6347 90.3333H1343.27H1376.34C1388.68 90.3333 1398.8 100.377 1398.8 112.667C1398.8 124.936 1388.7 135 1376.34 135H3.51242" stroke="#1D0505" stroke-miterlimit="10"/>
<path d="M12.412 33.336C8.8 33.336 6.7 31.18 6.7 27.512V25.86H9.248V27.12C9.248 29.304 9.668 31.152 12.468 31.152C14.932 31.152 15.38 29.472 15.38 27.484V13.4H17.928V27.876C17.928 30.34 16.78 33.336 12.412 33.336ZM27.646 33.336C23.278 33.336 20.646 30.564 20.646 26C20.646 21.744 23.306 18.664 27.646 18.664C31.93 18.664 34.618 21.772 34.618 26C34.618 30.396 31.846 33.336 27.646 33.336ZM27.646 31.348C29.074 31.348 30.082 30.928 30.754 30.172C31.566 29.248 31.902 27.82 31.902 26C31.902 24.18 31.566 22.724 30.726 21.8C30.054 21.072 29.074 20.652 27.646 20.652C26.274 20.652 25.266 21.016 24.594 21.716C23.698 22.64 23.362 24.124 23.362 26C23.362 27.876 23.698 29.36 24.594 30.284C25.266 30.984 26.246 31.348 27.646 31.348ZM39.7221 16.368H37.2021V13.4H39.7221V16.368ZM39.7221 33H37.2021V19H39.7221V33ZM54.1331 20.232C55.1971 21.38 55.2251 23.2 55.2251 24.684V33H52.6211V24.824C52.6211 23.536 52.6491 22.388 51.7811 21.576C50.9971 20.792 50.0731 20.764 49.2891 20.764C48.0571 20.764 45.6491 21.268 45.6491 25.272V33H43.1291V19H45.6491V21.128C46.3491 19.56 47.7211 18.664 49.9611 18.664C51.8091 18.664 53.1251 19.168 54.1331 20.232ZM69.0074 33.14C66.4034 33.14 65.2554 32.132 65.2554 29.864V21.1H63.2394V19H65.2554V15.108H67.7474V19H70.6034V21.1H67.7474V29.78C67.7474 30.704 68.1674 30.872 69.2034 30.872C69.5114 30.872 70.0154 30.816 70.4914 30.732L70.5474 33C70.0994 33.084 69.5114 33.14 69.0074 33.14ZM83.7814 20.232C84.8454 21.38 84.8734 23.144 84.8734 24.628V33H82.2694V24.768C82.2694 23.48 82.2974 22.388 81.4294 21.576C80.6454 20.792 79.7214 20.764 78.9374 20.764C77.6774 20.764 75.2974 21.072 75.2974 25.132V33H72.7774V13.4H75.2974V21.1C76.0814 19.42 77.6494 18.664 79.6094 18.664C81.4574 18.664 82.7734 19.168 83.7814 20.232ZM99.506 21.436C100.346 22.78 100.794 24.768 100.682 26.756H90.07C90.126 29.836 91.414 31.32 94.046 31.32C96.426 31.32 97.714 30.312 98.05 28.184L100.486 28.38C99.87 31.656 97.63 33.336 94.074 33.336C91.918 33.336 90.238 32.692 89.034 31.292C87.858 29.976 87.326 28.156 87.326 25.972C87.326 23.9 87.914 22.08 89.09 20.764C90.322 19.364 92.03 18.664 94.046 18.664C96.258 18.664 98.358 19.616 99.506 21.436ZM94.074 20.708C92.506 20.708 91.33 21.296 90.77 22.22C90.266 23.06 90.098 24.012 90.098 24.712H98.106C98.078 23.956 97.798 22.892 97.35 22.22C96.622 21.156 95.586 20.708 94.074 20.708Z" fill="#1D2840"/>
<path d="M1266.57 77H1259.91V57.4H1266.57C1272.51 57.4 1275.87 61.32 1275.87 67.2C1275.87 73.332 1272.39 77 1266.57 77ZM1262.43 59.584V74.816H1266.29C1268.84 74.816 1270.71 74.06 1271.61 72.744C1272.59 71.344 1273.01 69.748 1273.01 67.2C1273.01 64.624 1272.59 63.084 1271.61 61.684C1270.66 60.312 1268.73 59.584 1266.29 59.584H1262.43ZM1289.99 65.436C1290.83 66.78 1291.28 68.768 1291.16 70.756H1280.55C1280.61 73.836 1281.9 75.32 1284.53 75.32C1286.91 75.32 1288.2 74.312 1288.53 72.184L1290.97 72.38C1290.35 75.656 1288.11 77.336 1284.56 77.336C1282.4 77.336 1280.72 76.692 1279.52 75.292C1278.34 73.976 1277.81 72.156 1277.81 69.972C1277.81 67.9 1278.4 66.08 1279.57 64.764C1280.8 63.364 1282.51 62.664 1284.53 62.664C1286.74 62.664 1288.84 63.616 1289.99 65.436ZM1284.56 64.708C1282.99 64.708 1281.81 65.296 1281.25 66.22C1280.75 67.06 1280.58 68.012 1280.58 68.712H1288.59C1288.56 67.956 1288.28 66.892 1287.83 66.22C1287.1 65.156 1286.07 64.708 1284.56 64.708ZM1305.1 65.436C1305.94 66.78 1306.39 68.768 1306.28 70.756H1295.67C1295.72 73.836 1297.01 75.32 1299.64 75.32C1302.02 75.32 1303.31 74.312 1303.65 72.184L1306.08 72.38C1305.47 75.656 1303.23 77.336 1299.67 77.336C1297.51 77.336 1295.83 76.692 1294.63 75.292C1293.45 73.976 1292.92 72.156 1292.92 69.972C1292.92 67.9 1293.51 66.08 1294.69 64.764C1295.92 63.364 1297.63 62.664 1299.64 62.664C1301.85 62.664 1303.95 63.616 1305.1 65.436ZM1299.67 64.708C1298.1 64.708 1296.93 65.296 1296.37 66.22C1295.86 67.06 1295.69 68.012 1295.69 68.712H1303.7C1303.67 67.956 1303.39 66.892 1302.95 66.22C1302.22 65.156 1301.18 64.708 1299.67 64.708ZM1315.79 62.664C1319.52 62.664 1322.23 65.436 1322.23 70C1322.23 74.424 1319.66 77.336 1315.88 77.336C1313.92 77.336 1312.43 76.664 1311.37 75.18V82.6H1308.85V63H1311.37V65.044C1312.4 63.448 1313.92 62.664 1315.79 62.664ZM1318.17 74.368C1319.1 73.472 1319.46 71.988 1319.46 70C1319.46 66.724 1318.62 64.652 1315.34 64.652C1314.03 64.652 1313.02 65.072 1312.35 65.94C1311.65 66.836 1311.28 68.18 1311.28 69.972C1311.28 72.576 1311.87 75.32 1315.29 75.32C1316.58 75.32 1317.53 74.984 1318.17 74.368ZM1338.02 77.336C1333.7 77.336 1329.92 75.18 1329.92 70.616L1332.61 70.336C1332.61 73.472 1334.91 75.208 1337.93 75.208C1340.82 75.208 1343.28 74.34 1343.28 71.484C1343.28 68.768 1339.81 68.824 1336.87 68.124C1333.82 67.396 1330.46 66.332 1330.46 62.58C1330.46 58.576 1334.21 57.064 1337.4 57.064C1341.46 57.064 1344.79 58.66 1345.21 63.308L1342.58 63.784C1342.52 60.844 1340.56 59.164 1337.34 59.164C1335.44 59.164 1333.06 60.172 1333.06 62.468C1333.06 64.68 1336.03 65.38 1338.69 65.8C1342.58 66.416 1345.91 67.116 1345.91 71.288C1345.91 76.048 1341.8 77.336 1338.02 77.336ZM1350.94 77H1348.42V57.4H1350.94V77ZM1365.72 65.436C1366.56 66.78 1367.01 68.768 1366.89 70.756H1356.28C1356.34 73.836 1357.63 75.32 1360.26 75.32C1362.64 75.32 1363.93 74.312 1364.26 72.184L1366.7 72.38C1366.08 75.656 1363.84 77.336 1360.29 77.336C1358.13 77.336 1356.45 76.692 1355.25 75.292C1354.07 73.976 1353.54 72.156 1353.54 69.972C1353.54 67.9 1354.13 66.08 1355.3 64.764C1356.53 63.364 1358.24 62.664 1360.26 62.664C1362.47 62.664 1364.57 63.616 1365.72 65.436ZM1360.29 64.708C1358.72 64.708 1357.54 65.296 1356.98 66.22C1356.48 67.06 1356.31 68.012 1356.31 68.712H1364.32C1364.29 67.956 1364.01 66.892 1363.56 66.22C1362.83 65.156 1361.8 64.708 1360.29 64.708ZM1380.83 65.436C1381.67 66.78 1382.12 68.768 1382.01 70.756H1371.4C1371.45 73.836 1372.74 75.32 1375.37 75.32C1377.75 75.32 1379.04 74.312 1379.38 72.184L1381.81 72.38C1381.2 75.656 1378.96 77.336 1375.4 77.336C1373.24 77.336 1371.56 76.692 1370.36 75.292C1369.18 73.976 1368.65 72.156 1368.65 69.972C1368.65 67.9 1369.24 66.08 1370.42 64.764C1371.65 63.364 1373.36 62.664 1375.37 62.664C1377.58 62.664 1379.68 63.616 1380.83 65.436ZM1375.4 64.708C1373.83 64.708 1372.66 65.296 1372.1 66.22C1371.59 67.06 1371.42 68.012 1371.42 68.712H1379.43C1379.4 67.956 1379.12 66.892 1378.68 66.22C1377.95 65.156 1376.91 64.708 1375.4 64.708ZM1391.52 62.664C1395.25 62.664 1397.96 65.436 1397.96 70C1397.96 74.424 1395.39 77.336 1391.61 77.336C1389.65 77.336 1388.16 76.664 1387.1 75.18V82.6H1384.58V63H1387.1V65.044C1388.13 63.448 1389.65 62.664 1391.52 62.664ZM1393.9 74.368C1394.83 73.472 1395.19 71.988 1395.19 70C1395.19 66.724 1394.35 64.652 1391.07 64.652C1389.76 64.652 1388.75 65.072 1388.08 65.94C1387.38 66.836 1387.01 68.18 1387.01 69.972C1387.01 72.576 1387.6 75.32 1391.02 75.32C1392.31 75.32 1393.26 74.984 1393.9 74.368Z" fill="#1D2840"/>
<path d="M17.472 123.336C11.536 123.336 8.176 119.724 8.176 113.2C8.176 107.264 11.452 103.064 17.472 103.064C21.476 103.064 24.864 105.108 25.956 109.196L23.184 109.728C22.596 107.376 20.692 105.248 17.528 105.248C15.288 105.248 13.496 105.976 12.432 107.46C11.48 108.804 11.032 110.68 11.032 113.2C11.032 115.748 11.48 117.596 12.432 118.968C13.44 120.396 15.232 121.152 17.472 121.152C20.664 121.152 22.456 119.248 23.24 117.008L26.124 117.764C24.556 121.348 21.588 123.336 17.472 123.336ZM30.7755 123H28.2555V103.4H30.7755V123ZM43.6185 116.868V109H46.1385V123H43.6185V120.9C42.8625 122.496 41.2945 123.336 39.3065 123.336C37.4865 123.336 36.1705 122.832 35.1625 121.768C34.0705 120.62 34.0425 118.856 34.0425 117.372V109H36.6465V117.232C36.6465 118.52 36.6185 119.612 37.4585 120.424C38.2705 121.208 39.1945 121.236 40.0065 121.236C41.2665 121.236 43.6185 120.928 43.6185 116.868ZM56.5712 108.636C60.3512 108.636 62.9272 111.576 62.9272 116C62.9272 120.564 60.2112 123.336 56.4872 123.336C54.6112 123.336 53.0992 122.552 52.0632 120.956V123H49.5432V103.4H52.0632V110.82C53.1272 109.336 54.6112 108.636 56.5712 108.636ZM59.0912 120.256C59.9032 119.304 60.1552 117.848 60.1552 116C60.1552 112.64 59.1192 110.624 55.9832 110.624C54.4992 110.624 53.5472 111.156 52.9592 111.968C52.1752 113.004 51.9792 114.544 51.9792 116.028C51.9792 119.556 53.3512 121.404 56.0392 121.404C57.4672 121.404 58.4472 120.984 59.0912 120.256Z" fill="#1D2840"/>
</svg>
