<svg width="339" height="112" viewBox="0 0 339 112" fill="none" xmlns="http://www.w3.org/2000/svg">
<path d="M7.58 25.24C5 25.24 3.5 23.7 3.5 21.08V19.9H5.32V20.8C5.32 22.36 5.62 23.68 7.62 23.68C9.38 23.68 9.7 22.48 9.7 21.06V11H11.52V21.34C11.52 23.1 10.7 25.24 7.58 25.24ZM18.4614 25.24C15.3414 25.24 13.4614 23.26 13.4614 20C13.4614 16.96 15.3614 14.76 18.4614 14.76C21.5214 14.76 23.4414 16.98 23.4414 20C23.4414 23.14 21.4614 25.24 18.4614 25.24ZM18.4614 23.82C19.4814 23.82 20.2014 23.52 20.6814 22.98C21.2614 22.32 21.5014 21.3 21.5014 20C21.5014 18.7 21.2614 17.66 20.6614 17C20.1814 16.48 19.4814 16.18 18.4614 16.18C17.4814 16.18 16.7614 16.44 16.2814 16.94C15.6414 17.6 15.4014 18.66 15.4014 20C15.4014 21.34 15.6414 22.4 16.2814 23.06C16.7614 23.56 17.4614 23.82 18.4614 23.82ZM27.0872 13.12H25.2872V11H27.0872V13.12ZM27.0872 25H25.2872V15H27.0872V25ZM37.3808 15.88C38.1408 16.7 38.1608 18 38.1608 19.06V25H36.3008V19.16C36.3008 18.24 36.3208 17.42 35.7008 16.84C35.1408 16.28 34.4808 16.26 33.9208 16.26C33.0408 16.26 31.3208 16.62 31.3208 19.48V25H29.5208V15H31.3208V16.52C31.8208 15.4 32.8008 14.76 34.4008 14.76C35.7208 14.76 36.6608 15.12 37.3808 15.88ZM48.0053 25.1C46.1453 25.1 45.3253 24.38 45.3253 22.76V16.5H43.8853V15H45.3253V12.22H47.1053V15H49.1453V16.5H47.1053V22.7C47.1053 23.36 47.4053 23.48 48.1453 23.48C48.3653 23.48 48.7253 23.44 49.0653 23.38L49.1053 25C48.7853 25.06 48.3653 25.1 48.0053 25.1ZM58.5581 15.88C59.3181 16.7 59.3381 17.96 59.3381 19.02V25H57.4781V19.12C57.4781 18.2 57.4981 17.42 56.8781 16.84C56.3181 16.28 55.6581 16.26 55.0981 16.26C54.1981 16.26 52.4981 16.48 52.4981 19.38V25H50.6981V11H52.4981V16.5C53.0581 15.3 54.1781 14.76 55.5781 14.76C56.8981 14.76 57.8381 15.12 58.5581 15.88ZM69.79 16.74C70.39 17.7 70.71 19.12 70.63 20.54H63.05C63.09 22.74 64.01 23.8 65.89 23.8C67.59 23.8 68.51 23.08 68.75 21.56L70.49 21.7C70.05 24.04 68.45 25.24 65.91 25.24C64.37 25.24 63.17 24.78 62.31 23.78C61.47 22.84 61.09 21.54 61.09 19.98C61.09 18.5 61.51 17.2 62.35 16.26C63.23 15.26 64.45 14.76 65.89 14.76C67.47 14.76 68.97 15.44 69.79 16.74ZM65.91 16.22C64.79 16.22 63.95 16.64 63.55 17.3C63.19 17.9 63.07 18.58 63.07 19.08H68.79C68.77 18.54 68.57 17.78 68.25 17.3C67.73 16.54 66.99 16.22 65.91 16.22Z" fill="#1D2840"/>
<path d="M243.408 62H238.648V48H243.408C247.648 48 250.048 50.8 250.048 55C250.048 59.38 247.568 62 243.408 62ZM240.448 49.56V60.44H243.208C245.028 60.44 246.368 59.9 247.008 58.96C247.708 57.96 248.008 56.82 248.008 55C248.008 53.16 247.708 52.06 247.008 51.06C246.328 50.08 244.948 49.56 243.208 49.56H240.448ZM260.134 53.74C260.734 54.7 261.054 56.12 260.974 57.54H253.394C253.434 59.74 254.354 60.8 256.234 60.8C257.934 60.8 258.854 60.08 259.094 58.56L260.834 58.7C260.394 61.04 258.794 62.24 256.254 62.24C254.714 62.24 253.514 61.78 252.654 60.78C251.814 59.84 251.434 58.54 251.434 56.98C251.434 55.5 251.854 54.2 252.694 53.26C253.574 52.26 254.794 51.76 256.234 51.76C257.814 51.76 259.314 52.44 260.134 53.74ZM256.254 53.22C255.134 53.22 254.294 53.64 253.894 54.3C253.534 54.9 253.414 55.58 253.414 56.08H259.134C259.114 55.54 258.914 54.78 258.594 54.3C258.074 53.54 257.334 53.22 256.254 53.22ZM270.93 53.74C271.53 54.7 271.85 56.12 271.77 57.54H264.19C264.23 59.74 265.15 60.8 267.03 60.8C268.73 60.8 269.65 60.08 269.89 58.56L271.63 58.7C271.19 61.04 269.59 62.24 267.05 62.24C265.51 62.24 264.31 61.78 263.45 60.78C262.61 59.84 262.23 58.54 262.23 56.98C262.23 55.5 262.65 54.2 263.49 53.26C264.37 52.26 265.59 51.76 267.03 51.76C268.61 51.76 270.11 52.44 270.93 53.74ZM267.05 53.22C265.93 53.22 265.09 53.64 264.69 54.3C264.33 54.9 264.21 55.58 264.21 56.08H269.93C269.91 55.54 269.71 54.78 269.39 54.3C268.87 53.54 268.13 53.22 267.05 53.22ZM278.566 51.76C281.226 51.76 283.166 53.74 283.166 57C283.166 60.16 281.326 62.24 278.626 62.24C277.226 62.24 276.166 61.76 275.406 60.7V66H273.606V52H275.406V53.46C276.146 52.32 277.226 51.76 278.566 51.76ZM280.266 60.12C280.926 59.48 281.186 58.42 281.186 57C281.186 54.66 280.586 53.18 278.246 53.18C277.306 53.18 276.586 53.48 276.106 54.1C275.606 54.74 275.346 55.7 275.346 56.98C275.346 58.84 275.766 60.8 278.206 60.8C279.126 60.8 279.806 60.56 280.266 60.12ZM294.44 62.24C291.36 62.24 288.66 60.7 288.66 57.44L290.58 57.24C290.58 59.48 292.22 60.72 294.38 60.72C296.44 60.72 298.2 60.1 298.2 58.06C298.2 56.12 295.72 56.16 293.62 55.66C291.44 55.14 289.04 54.38 289.04 51.7C289.04 48.84 291.72 47.76 294 47.76C296.9 47.76 299.28 48.9 299.58 52.22L297.7 52.56C297.66 50.46 296.26 49.26 293.96 49.26C292.6 49.26 290.9 49.98 290.9 51.62C290.9 53.2 293.02 53.7 294.92 54C297.7 54.44 300.08 54.94 300.08 57.92C300.08 61.32 297.14 62.24 294.44 62.24ZM303.673 62H301.873V48H303.673V62ZM314.227 53.74C314.827 54.7 315.147 56.12 315.067 57.54H307.487C307.527 59.74 308.447 60.8 310.327 60.8C312.027 60.8 312.947 60.08 313.187 58.56L314.927 58.7C314.487 61.04 312.887 62.24 310.347 62.24C308.807 62.24 307.607 61.78 306.747 60.78C305.907 59.84 305.527 58.54 305.527 56.98C305.527 55.5 305.947 54.2 306.787 53.26C307.667 52.26 308.887 51.76 310.327 51.76C311.907 51.76 313.407 52.44 314.227 53.74ZM310.347 53.22C309.227 53.22 308.387 53.64 307.987 54.3C307.627 54.9 307.507 55.58 307.507 56.08H313.227C313.207 55.54 313.007 54.78 312.687 54.3C312.167 53.54 311.427 53.22 310.347 53.22ZM325.023 53.74C325.623 54.7 325.943 56.12 325.863 57.54H318.283C318.323 59.74 319.243 60.8 321.123 60.8C322.823 60.8 323.743 60.08 323.983 58.56L325.723 58.7C325.283 61.04 323.683 62.24 321.143 62.24C319.603 62.24 318.403 61.78 317.543 60.78C316.703 59.84 316.323 58.54 316.323 56.98C316.323 55.5 316.743 54.2 317.583 53.26C318.463 52.26 319.683 51.76 321.123 51.76C322.703 51.76 324.203 52.44 325.023 53.74ZM321.143 53.22C320.023 53.22 319.183 53.64 318.783 54.3C318.423 54.9 318.303 55.58 318.303 56.08H324.023C324.003 55.54 323.803 54.78 323.483 54.3C322.963 53.54 322.223 53.22 321.143 53.22ZM332.659 51.76C335.319 51.76 337.259 53.74 337.259 57C337.259 60.16 335.419 62.24 332.719 62.24C331.319 62.24 330.259 61.76 329.499 60.7V66H327.699V52H329.499V53.46C330.239 52.32 331.319 51.76 332.659 51.76ZM334.359 60.12C335.019 59.48 335.279 58.42 335.279 57C335.279 54.66 334.679 53.18 332.339 53.18C331.399 53.18 330.679 53.48 330.199 54.1C329.699 54.74 329.439 55.7 329.439 56.98C329.439 58.84 329.859 60.8 332.299 60.8C333.219 60.8 333.899 60.56 334.359 60.12Z" fill="#1D2840"/>
<path d="M11.48 99.24C7.24 99.24 4.84 96.66 4.84 92C4.84 87.76 7.18 84.76 11.48 84.76C14.34 84.76 16.76 86.22 17.54 89.14L15.56 89.52C15.14 87.84 13.78 86.32 11.52 86.32C9.92 86.32 8.64 86.84 7.88 87.9C7.2 88.86 6.88 90.2 6.88 92C6.88 93.82 7.2 95.14 7.88 96.12C8.6 97.14 9.88 97.68 11.48 97.68C13.76 97.68 15.04 96.32 15.6 94.72L17.66 95.26C16.54 97.82 14.42 99.24 11.48 99.24ZM20.9825 99H19.1825V85H20.9825V99ZM30.1561 94.62V89H31.9561V99H30.1561V97.5C29.6161 98.64 28.4961 99.24 27.0761 99.24C25.7761 99.24 24.8361 98.88 24.1161 98.12C23.3361 97.3 23.3161 96.04 23.3161 94.98V89H25.1761V94.88C25.1761 95.8 25.1561 96.58 25.7561 97.16C26.3361 97.72 26.9961 97.74 27.5761 97.74C28.4761 97.74 30.1561 97.52 30.1561 94.62ZM39.408 88.74C42.108 88.74 43.948 90.84 43.948 94C43.948 97.26 42.008 99.24 39.348 99.24C38.008 99.24 36.928 98.68 36.188 97.54V99H34.388V85H36.188V90.3C36.948 89.24 38.008 88.74 39.408 88.74ZM41.208 97.04C41.788 96.36 41.968 95.32 41.968 94C41.968 91.6 41.228 90.16 38.988 90.16C37.928 90.16 37.248 90.54 36.828 91.12C36.268 91.86 36.128 92.96 36.128 94.02C36.128 96.54 37.108 97.86 39.028 97.86C40.048 97.86 40.748 97.56 41.208 97.04Z" fill="#1D2840"/>
<path d="M0 1H319.546C329.684 1 338 9.24515 338 19.3333C338 29.4215 329.701 37.6667 319.546 37.6667H19.4157C9.27745 37.6667 0.961801 45.9118 0.961801 56C0.961801 66.072 9.26118 74.3333 19.4157 74.3333H292.217H319.383C329.522 74.3333 337.837 82.5785 337.837 92.6667C337.837 102.739 329.538 111 319.383 111H2.88542" stroke="#1D0505" stroke-miterlimit="10"/>
</svg>
