<svg width="120" height="24" viewBox="0 0 120 24" fill="none" xmlns="http://www.w3.org/2000/svg">
<g clip-path="url(#clip0_2009_2522)">
<path d="M40.764 16.1544H28.1068C28.1739 19.8263 29.7086 21.5966 32.8481 21.5966C35.6871 21.5966 37.2219 20.395 37.6245 17.8577L40.5306 18.091C39.7953 21.9962 37.1227 23.9998 32.8831 23.9998C30.3126 23.9998 28.3081 23.2328 26.8725 21.5616C25.4691 19.9926 24.8359 17.8227 24.8359 15.2182C24.8359 12.7479 25.5362 10.578 26.9396 9.00896C28.4102 7.34071 30.4468 6.50659 32.851 6.50659C35.4887 6.50659 37.9951 7.64112 39.3635 9.811C40.3643 11.4122 40.8983 13.7833 40.767 16.1544H40.764ZM28.9412 10.7472C28.3402 11.7476 28.1389 12.885 28.1389 13.7191H37.6916C37.6595 12.8179 37.324 11.5492 36.79 10.7472C35.9205 9.47852 34.6863 8.9448 32.8831 8.9448C31.08 8.9448 29.6094 9.64476 28.9412 10.7472Z" fill="#1D0505"/>
<path d="M55.4349 0.233154H58.4402V23.6003H55.4349V21.1621C54.1977 23.0636 52.3946 23.9998 50.1595 23.9998C45.7187 23.9998 42.4771 20.6954 42.4771 15.2532C42.4771 9.81099 45.5495 6.50658 50.0574 6.50658C52.3945 6.50658 54.1656 7.30862 55.4349 9.07603V0.233154ZM55.5341 15.2882C55.5341 12.185 54.8338 8.9127 50.7577 8.9127C49.0537 8.9127 47.8516 9.41434 47.0842 10.3155C46.1476 11.418 45.7829 13.0862 45.7829 15.2561C45.7829 19.1613 46.7837 21.6316 50.6935 21.6316C52.0969 21.6316 53.1648 21.2321 53.9672 20.43C55.003 19.3947 55.537 17.6593 55.537 15.2882H55.5341Z" fill="#1D0505"/>
<path d="M62.4462 19.8612V9.41134H60.042V6.90897H62.4462V2.2688H65.4194V6.90897H68.8274V9.41134H65.4194V19.7591C65.4194 20.8616 65.9213 21.0599 67.1555 21.0599C67.5232 21.0599 68.1242 20.9928 68.6932 20.8937L68.7603 23.5973C68.2263 23.6964 67.5232 23.7635 66.9221 23.7635C63.8147 23.7635 62.4462 22.5619 62.4462 19.8583V19.8612Z" fill="#1D0505"/>
<path d="M73.4258 23.6005H70.4468V14.0752H73.4258V23.6005Z" fill="#1D0505"/>
<path d="M80.6733 3.77089V0.233154H83.6786V3.77089H80.6733ZM80.6733 23.6003V6.90906H83.6786V23.6003H80.6733Z" fill="#1D0505"/>
<path d="M102.02 15.2532C102.02 20.6954 98.781 23.9998 94.3373 23.9998C92.0993 23.9998 90.2962 23.0636 89.0619 21.1621V23.6003H86.0566V0.233154H89.0619V9.07894C90.3312 7.30862 92.1023 6.4745 94.4394 6.4745C98.9474 6.4745 102.02 9.98015 102.02 15.2532ZM98.7139 15.2532C98.7139 11.2459 97.4797 8.84271 93.7362 8.84271C91.9651 8.84271 90.8301 9.47851 90.1298 10.4439C89.1932 11.6805 88.9598 13.515 88.9598 15.2853C88.9598 19.4909 90.5967 21.6958 93.8033 21.6958C95.5073 21.6958 96.6744 21.1941 97.4447 20.3279C98.4134 19.1934 98.7139 17.4581 98.7139 15.2532Z" fill="#1D0505"/>
<path d="M119.558 16.1544H106.901C106.968 19.8263 108.503 21.5966 111.643 21.5966C114.482 21.5966 116.016 20.395 116.419 17.8577L119.325 18.091C118.59 21.9962 115.917 23.9998 111.678 23.9998C109.107 23.9998 107.103 23.2328 105.667 21.5616C104.264 19.9926 103.63 17.8227 103.63 15.2182C103.63 12.7479 104.331 10.578 105.734 9.00896C107.205 7.34071 109.241 6.50659 111.645 6.50659C114.283 6.50659 116.79 7.64112 118.158 9.811C119.159 11.4122 119.693 13.7833 119.561 16.1544H119.558ZM107.736 10.7472C107.135 11.7476 106.933 12.885 106.933 13.7191H116.486C116.454 12.8179 116.118 11.5492 115.584 10.7472C114.715 9.47852 113.481 8.9448 111.678 8.9448C109.874 8.9448 108.404 9.64476 107.736 10.7472Z" fill="#1D0505"/>
<path d="M73.4258 14.075H70.4468C70.4468 10.2048 73.595 7.05786 77.4669 7.05786H78.634V10.0356H77.4669C75.2378 10.0356 73.4258 11.8468 73.4258 14.075Z" fill="#1D0505"/>
<path d="M18.7553 9.59825H5.38901V6.97339H18.7553C19.9545 6.97339 20.932 5.99927 20.932 4.79767C20.932 3.59606 19.9574 2.62195 18.7553 2.62195H0.0932617V0H18.7553C21.4017 0 23.558 2.15239 23.558 4.80058C23.558 7.44878 21.4046 9.60117 18.7553 9.60117V9.59825Z" fill="#1D0505"/>
<path d="M18.6621 23.5682H0V20.9433H18.6621C19.8613 20.9433 20.8387 19.9692 20.8387 18.7676C20.8387 17.566 19.8642 16.5919 18.6621 16.5919H5.29575V13.967H18.6621C21.3085 13.967 23.4647 16.1194 23.4647 18.7676C23.4647 21.4158 21.3114 23.5682 18.6621 23.5682Z" fill="#1D0505"/>
<path d="M18.4985 16.5746H5.13224C2.48582 16.5746 0.32959 14.4222 0.32959 11.774C0.32959 9.12578 2.4829 6.97339 5.13224 6.97339H18.4985V9.59825H5.13224C3.93304 9.59825 2.95558 10.5724 2.95558 11.774C2.95558 12.9756 3.93012 13.9497 5.13224 13.9497H18.4985V16.5746Z" fill="#1D0505"/>
</g>
<defs>
<clipPath id="clip0_2009_2522">
<rect width="119.579" height="24" fill="white"/>
</clipPath>
</defs>
</svg>
