<svg width="18" height="18" viewBox="0 0 18 18" fill="none" xmlns="http://www.w3.org/2000/svg">
<path fill-rule="evenodd" clip-rule="evenodd" d="M14.5996 5.8645C14.1937 6.03844 13.7492 6.16407 13.2854 6.22205C13.7685 5.93214 14.1261 5.49729 14.3 4.96579C13.8555 5.22671 13.3627 5.41998 12.8312 5.51661C12.4157 5.07209 11.8165 4.80151 11.1497 4.80151C9.88382 4.80151 8.84982 5.81618 8.84982 7.06277C8.84982 7.24638 8.87882 7.41066 8.91747 7.57494C7.0041 7.48797 5.31298 6.58926 4.18235 5.21704C3.98908 5.55527 3.86346 5.94181 3.86346 6.35734C3.86346 7.14974 4.27899 7.83585 4.88779 8.24172C4.51091 8.24172 4.16303 8.13542 3.85379 7.96148V7.99047C3.85379 8.28037 3.91178 8.55095 4.00841 8.8022C4.28865 9.5173 4.92644 10.0488 5.69952 10.2034C5.49659 10.2614 5.30332 10.2904 5.09072 10.2904C4.94577 10.2904 4.80082 10.2711 4.65586 10.2421C4.95543 11.1408 5.79616 11.7979 6.80116 11.8172C6.00876 12.426 5.02308 12.7836 3.95043 12.7836C3.75716 12.7836 3.58322 12.7739 3.39961 12.7546C4.42394 13.3924 5.63188 13.7692 6.92679 13.7692C10.5216 13.7692 12.7346 11.2857 13.3144 8.70557C13.4207 8.24172 13.469 7.78754 13.469 7.34302V7.05311C13.9135 6.73421 14.3097 6.32835 14.6093 5.88383L14.5996 5.8645Z" fill="black"/>
</svg>
